<?xml version="1.0" standalone="no"?>
<!DOCTYPE svg PUBLIC "-//W3C//DTD SVG 20010904//EN"
 "http://www.w3.org/TR/2001/REC-SVG-20010904/DTD/svg10.dtd">
<svg version="1.0" xmlns="http://www.w3.org/2000/svg"
 width="512.000000pt" height="512.000000pt" viewBox="0 0 512.000000 512.000000"
 preserveAspectRatio="xMidYMid meet">
<metadata>
Created by potrace 1.14, written by Peter Selinger 2001-2017
</metadata>
<g transform="translate(0.000000,512.000000) scale(0.100000,-0.100000)"
fill="#000000" stroke="none">
<path d="M2378 5115 c-1 -1 -39 -5 -82 -9 -44 -4 -82 -8 -85 -10 -3 -2 -31 -7
-61 -11 -61 -7 -166 -29 -250 -52 -69 -18 -242 -74 -255 -82 -5 -3 -15 -6 -20
-7 -20 -3 -215 -95 -297 -141 -258 -141 -517 -350 -700 -565 -29 -35 -55 -65
-58 -68 -16 -14 -104 -136 -152 -210 -64 -97 -120 -197 -163 -287 -29 -61 -45
-78 -45 -48 0 12 -14 15 -65 15 -74 0 -72 3 -51 -92 8 -35 17 -74 20 -88 2
-14 7 -37 11 -52 5 -18 -5 -70 -28 -155 -20 -70 -38 -141 -41 -158 -3 -16 -8
-43 -11 -60 -34 -178 -40 -255 -40 -495 1 -256 16 -378 72 -605 159 -637 572
-1202 1133 -1550 281 -174 631 -305 935 -350 22 -4 51 -8 65 -11 69 -13 173
-18 345 -19 231 0 299 6 505 46 58 12 116 23 130 26 38 7 316 101 369 124 329
147 593 329 835 574 292 297 521 694 632 1095 71 259 89 401 89 715 -1 223 -8
307 -46 490 -120 580 -441 1105 -901 1476 -92 74 -271 199 -285 199 -4 0 -14
6 -22 14 -21 17 -164 92 -267 138 -153 69 -403 147 -559 173 -22 4 -49 9 -60
10 -11 2 -40 7 -65 10 -25 4 -56 9 -70 12 -27 5 -456 13 -462 8z"/>
</g>
</svg>
